<svg width="32" height="32" viewBox="0 0 32 32" fill="none" xmlns="http://www.w3.org/2000/svg">
<g id="trending" clip-path="url(#clip0_5_1393)">
<g id="Layer 2">
<g id="trending-up">
<path id="Vector" d="M28 9.33333C28.0126 9.24043 28.0126 9.14624 28 9.05333C27.9884 8.97505 27.966 8.89877 27.9334 8.82667C27.8981 8.7615 27.858 8.6991 27.8134 8.64C27.7626 8.55567 27.6997 8.47929 27.6267 8.41333L27.4667 8.32C27.3897 8.26261 27.3042 8.21762 27.2134 8.18667H26.9467C26.8654 8.10799 26.7706 8.04474 26.6667 8H20C19.6464 8 19.3073 8.14048 19.0572 8.39052C18.8072 8.64057 18.6667 8.97971 18.6667 9.33333C18.6667 9.68696 18.8072 10.0261 19.0572 10.2761C19.3073 10.5262 19.6464 10.6667 20 10.6667H23.7734L18.44 16.9467L12.68 13.52C12.4072 13.3577 12.0854 13.2981 11.7726 13.3519C11.4597 13.4057 11.1763 13.5693 10.9734 13.8133L4.30669 21.8133C4.19443 21.9481 4.10984 22.1036 4.05778 22.2711C4.00572 22.4386 3.98721 22.6147 4.00331 22.7893C4.01941 22.9639 4.06981 23.1337 4.15161 23.2888C4.23341 23.4439 4.34502 23.5814 4.48003 23.6933C4.71991 23.8921 5.02182 24.0006 5.33336 24C5.52924 24.0003 5.72279 23.9575 5.90023 23.8745C6.07768 23.7915 6.23466 23.6705 6.36003 23.52L12.2934 16.4L17.9867 19.8133C18.2567 19.9735 18.5746 20.0332 18.8844 19.982C19.1942 19.9308 19.4759 19.7719 19.68 19.5333L25.3334 12.9333V16C25.3334 16.3536 25.4738 16.6928 25.7239 16.9428C25.9739 17.1929 26.3131 17.3333 26.6667 17.3333C27.0203 17.3333 27.3595 17.1929 27.6095 16.9428C27.8596 16.6928 28 16.3536 28 16V9.33333Z" fill="white"/>
</g>
</g>
</g>
<defs>
<clipPath id="clip0_5_1393">
<rect width="32" height="32" fill="white"/>
</clipPath>
</defs>
</svg>
